<svg xmlns="http://www.w3.org/2000/svg" xmlns:xlink="http://www.w3.org/1999/xlink" width="45" height="45" viewBox="0 0 650 650">
  <defs>
    <clipPath id="clip-path">
      <rect id="Rectangle_11" data-name="Rectangle 11" width="650" height="650" transform="translate(1296 20)" fill="none"/>
    </clipPath>
  </defs>
  <g id="travelicious-logo-2" transform="translate(-1296 -20)" clip-path="url(#clip-path)">
    <g id="travelicious-logo-2-2" data-name="travelicious-logo-2" transform="translate(-149 -31)">
      <circle id="Ellipse_2" data-name="Ellipse 2" cx="317.5" cy="317.5" r="317.5" transform="translate(1452 58)"/>
      <g id="Ellipse_3" data-name="Ellipse 3" transform="translate(1469 75)" fill="none" stroke="#fff" stroke-width="20">
        <circle cx="301" cy="301" r="301" stroke="none"/>
        <circle cx="301" cy="301" r="291" fill="none"/>
      </g>
      <g id="Ellipse_1" data-name="Ellipse 1" transform="translate(1517 125)" fill="#fff" stroke="#000" stroke-width="7">
        <circle cx="250" cy="250" r="250" stroke="none"/>
        <circle cx="250" cy="250" r="246.5" fill="none"/>
      </g>
      <g id="Spork" transform="translate(1961.432 262.659) rotate(135)">
        <g id="fork_prongs" data-name="fork prongs" transform="translate(0 65.969) rotate(-90)">
          <line id="Line_3" data-name="Line 3" y2="67" transform="translate(48 0)" fill="none" stroke="#000" stroke-linecap="round" stroke-width="8"/>
          <line id="Line_4" data-name="Line 4" y2="67" transform="translate(32 0)" fill="none" stroke="#000" stroke-linecap="round" stroke-width="8"/>
          <line id="Line_5" data-name="Line 5" y2="67" transform="translate(16 0)" fill="none" stroke="#000" stroke-linecap="round" stroke-width="8"/>
          <line id="Line_6" data-name="Line 6" y2="67" transform="translate(0 0)" fill="none" stroke="#000" stroke-linecap="round" stroke-width="8"/>
          <line id="Line_7" data-name="Line 7" x1="41" transform="translate(3.463 69)" fill="none" stroke="#000" stroke-linecap="round" stroke-width="15"/>
        </g>
        <path id="Polygon_1" data-name="Polygon 1" d="M25.5,0,51,150H0Z" transform="translate(64.011 66.353) rotate(-90)"/>
        <path id="Polygon_2" data-name="Polygon 2" d="M25.5,0,51,150H0Z" transform="translate(364.641 14.814) rotate(90)"/>
        <rect id="Rectangle_7" data-name="Rectangle 7" width="60" height="60" transform="translate(214.451 0) rotate(45)"/>
        <g id="Path_3" data-name="Path 3" transform="translate(455.697 7.64) rotate(90)">
          <path d="M 34.49999237060547 98.12278747558594 C 29.9279670715332 98.12278747558594 25.49107933044434 96.95392608642578 21.31256675720215 94.64867401123047 C 17.26511764526367 92.41572570800781 13.62779235839844 89.21599578857422 10.50161743164062 85.13838195800781 C 7.367892265319824 81.05092620849609 4.906842231750488 76.28890991210938 3.186792373657227 70.98459625244141 C 1.403967380523682 65.48666381835938 0.5000048875808716 59.64530944824219 0.5000048875808716 53.62279891967773 C 0.5000048875808716 47.70027160644531 1.619842410087585 41.2324333190918 3.738467454910278 34.91852188110352 C 5.780442237854004 28.83302307128906 8.73626708984375 22.90529823303223 12.28637981414795 17.77615928649902 C 15.88315486907959 12.57962226867676 20.05231666564941 8.263647079467773 24.34314155578613 5.294822692871094 C 26.57653045654297 3.749547481536865 28.85110473632812 2.558822631835938 31.10367965698242 1.755722522735596 C 33.44079208374023 0.922497570514679 35.77480316162109 0.500010073184967 38.04087829589844 0.500010073184967 C 42.48045349121094 0.500010073184967 46.70634078979492 2.105410099029541 50.60118103027344 5.271622657775879 C 54.21564102172852 8.209922790527344 57.45257949829102 12.39894771575928 60.22205352783203 17.72236061096191 C 62.80698013305664 22.6910343170166 64.92758941650391 28.62084770202637 66.3546142578125 34.87074661254883 C 67.75813293457031 41.01765823364258 68.49999237060547 47.50199890136719 68.49999237060547 53.62278366088867 C 68.49999237060547 59.64529800415039 67.59601593017578 65.48664855957031 65.81319427490234 70.98458862304688 C 64.0931396484375 76.28889465332031 61.632080078125 81.05092620849609 58.49836730957031 85.13837432861328 C 55.3721923828125 89.21599578857422 51.73485565185547 92.41572570800781 47.68741607666016 94.64867401123047 C 43.50890350341797 96.95392608642578 39.07201766967773 98.12278747558594 34.49999237060547 98.12278747558594 Z" stroke="none"/>
          <path d="M 34.49999237060547 97.62278747558594 C 38.98656463623047 97.62278747558594 43.34219360351562 96.474853515625 47.44588470458984 94.21087646484375 C 51.43254089355469 92.01146697998047 55.01763153076172 88.85667419433594 58.10156631469727 84.83415985107422 C 61.20058059692383 80.79196929931641 63.63512420654297 76.08041381835938 65.33757781982422 70.83036041259766 C 67.10421752929688 65.38231658935547 67.99999237060547 59.59284973144531 67.99999237060547 53.62278366088867 C 67.99999237060547 47.53886413574219 67.26247406005859 41.09300994873047 65.86716461181641 34.98205184936523 C 64.44947052001953 28.77306365966797 62.34404754638672 22.88455772399902 59.77848434448242 17.95311737060547 C 57.04072570800781 12.69067764282227 53.846923828125 8.554544448852539 50.2857780456543 5.659597396850586 C 46.48239135742188 2.567717552185059 42.36260604858398 1.000010848045349 38.04088592529297 1.000010848045349 C 35.83218002319336 1.000010848045349 33.55467224121094 1.412730932235718 31.27159309387207 2.226690769195557 C 29.06032562255859 3.015050888061523 26.82496643066406 4.185664176940918 24.62764549255371 5.705997467041016 C 20.38576507568359 8.640944480895996 16.2603931427002 12.91313076019287 12.69751262664795 18.06071662902832 C 9.173792839050293 23.15171813964844 6.239725589752197 29.03605079650879 4.212499141693115 35.07757186889648 C 2.110872268676758 41.34085083007812 1.000005722045898 47.75369262695312 1.000005722045898 53.62279891967773 C 1.000005722045898 59.59286499023438 1.895765662193298 65.38233184814453 3.662419080734253 70.83036804199219 C 5.364859104156494 76.08042144775391 7.799405574798584 80.79196929931641 10.89841938018799 84.83416748046875 C 13.9823522567749 88.856689453125 17.56743240356445 92.01146697998047 21.55408477783203 94.21087646484375 C 25.65779304504395 96.474853515625 30.01341819763184 97.62278747558594 34.49999237060547 97.62278747558594 M 34.49999237060547 98.62278747558594 C 15.44616603851318 98.62278747558594 -7.62939453125e-06 78.47560882568359 5.703938768419903e-06 53.62279891967773 C 5.703938768419903e-06 28.76998329162598 18.98704528808594 1.088582394004334e-05 38.04088592529297 1.088582394004334e-05 C 57.09469985961914 1.088582394004334e-05 68.99999237060547 28.76998329162598 68.99999237060547 53.62278366088867 C 68.99999237060547 78.47560119628906 53.55380630493164 98.62278747558594 34.49999237060547 98.62278747558594 Z" stroke="none" fill="#707070"/>
        </g>
      </g>
      <text id="T" transform="translate(1489.274 177.164) rotate(-25)" fill="#1a95e2" font-size="500" font-family="Papyrus"><tspan x="0" y="470">T</tspan></text>
    </g>
  </g>
</svg>
